<?xml version="1.0" standalone="no"?>
<!DOCTYPE svg PUBLIC "-//W3C//DTD SVG 20010904//EN"
 "http://www.w3.org/TR/2001/REC-SVG-20010904/DTD/svg10.dtd">
<svg version="1.0" xmlns="http://www.w3.org/2000/svg"
 width="512.000000pt" height="512.000000pt" viewBox="0 0 512.000000 512.000000"
 preserveAspectRatio="xMidYMid meet">
<metadata>
Created by potrace 1.14, written by Peter Selinger 2001-2017
</metadata>
<g transform="translate(0.000000,512.000000) scale(0.100000,-0.100000)"
fill="#000000" stroke="none">
<path d="M1033 5105 c-59 -18 -106 -49 -152 -101 -71 -80 -75 -106 -76 -469
l0 -320 -275 -2 c-261 -1 -277 0 -312 20 -68 37 -86 124 -40 187 33 45 62 52
226 53 161 2 179 7 196 52 10 27 -7 73 -33 87 -28 15 -309 14 -362 0 -88 -25
-166 -102 -195 -196 -16 -51 -8 -142 18 -192 59 -116 137 -157 307 -164 6 0
11 -36 11 -83 2 -98 22 -152 80 -217 117 -130 315 -132 439 -5 62 64 88 130
89 232 l1 73 40 0 c81 1 1011 1 1033 1 15 -1 22 -7 22 -21 0 -52 57 -114 115
-124 15 -3 29 -6 30 -8 2 -2 29 -67 60 -145 57 -143 90 -191 133 -194 23 -2
75 -7 87 -8 6 -1 10 -36 11 -83 1 -75 3 -83 28 -105 31 -26 44 -28 81 -11 31
14 41 49 40 135 0 50 3 63 15 64 8 1 24 2 35 3 11 1 30 3 42 4 49 4 79 48 139
197 54 136 59 145 88 151 61 13 116 72 116 124 0 19 6 20 138 20 1593 3 1695
4 1743 26 132 61 199 214 153 348 -18 52 -82 129 -128 153 -70 37 -113 38
-1001 37 -478 -1 -877 0 -886 2 -10 3 -20 19 -23 37 -7 37 -46 84 -84 99 -15
6 -99 11 -186 12 l-159 2 -4 44 c-6 84 -32 141 -92 201 -102 102 -63 97 -816
97 -496 0 -660 -3 -692 -13z m1344 -150 c67 -28 102 -75 106 -142 l2 -38 -166
-1 c-145 0 -170 -3 -195 -19 -39 -25 -60 -53 -73 -96 l-11 -36 -400 1 c-220 1
-414 -3 -431 -7 -21 -5 -34 -18 -43 -39 -16 -37 -11 -60 16 -85 19 -17 49 -18
427 -20 223 0 413 -2 423 -2 14 -1 16 -16 15 -131 l-1 -130 -545 3 -546 2 0
304 c0 369 4 388 100 432 37 17 80 19 663 19 538 0 628 -2 659 -15z m538 -337
c8 -5 12 -444 6 -545 -1 -10 -81 -13 -361 -13 -334 0 -360 2 -361 18 -2 36 -4
544 -2 545 5 5 710 0 718 -5z m1983 -162 c98 -51 92 -189 -10 -230 -32 -13
-155 -15 -926 -15 l-889 0 0 127 c0 94 4 128 13 132 7 3 411 5 896 4 813 -1
886 -2 916 -18z m-4107 -395 c13 -1 15 -13 14 -71 -2 -56 -8 -78 -28 -109 -48
-72 -146 -91 -216 -42 -45 33 -64 76 -65 151 l-1 65 35 5 c28 4 167 4 261 1z
m1969 -155 c0 -2 -18 -46 -39 -97 l-39 -94 -123 0 -123 0 -38 94 c-21 52 -38
96 -38 98 0 2 90 3 200 3 110 0 200 -2 200 -4z"/>
<path d="M1272 3184 c-253 -63 -466 -245 -565 -480 -79 -186 -73 -312 19 -414
96 -106 246 -125 366 -46 63 41 101 95 127 183 26 88 69 144 139 179 196 98
416 -79 363 -292 -28 -109 -127 -190 -241 -195 -98 -5 -191 -52 -240 -124 -79
-115 -69 -263 26 -361 56 -57 116 -84 202 -91 84 -6 144 -32 191 -82 94 -99
93 -254 -2 -354 -94 -99 -249 -105 -352 -15 -57 50 -84 108 -91 194 -14 179
-128 286 -296 280 -128 -4 -225 -76 -263 -194 -14 -43 -17 -73 -12 -145 14
-209 103 -398 253 -542 l53 -50 -352 0 -352 0 -55 -26 c-67 -33 -123 -86 -158
-153 -23 -44 -27 -62 -26 -136 1 -67 5 -95 24 -134 32 -66 89 -122 158 -154
l57 -27 2320 0 2320 0 55 29 c66 34 119 88 151 153 34 71 34 198 -1 267 -33
65 -94 124 -160 155 l-55 26 -470 1 c-258 1 -469 4 -468 8 1 4 26 25 54 48
210 166 369 430 438 728 36 156 45 241 45 420 0 158 -6 226 -30 350 -45 239
-164 499 -297 647 -177 198 -368 306 -622 353 -139 26 -701 29 -783 5 -87 -26
-166 -111 -189 -202 -13 -52 -15 -2231 -2 -2300 6 -28 5 -49 0 -52 -7 -5 -521
-6 -540 -2 -2 1 27 34 65 74 156 164 236 374 228 599 -6 161 -69 345 -157 461
-21 26 -37 51 -37 55 0 4 16 30 36 57 74 103 144 274 144 351 0 62 -71 97
-118 57 -12 -11 -28 -45 -37 -83 -20 -79 -72 -187 -124 -255 -76 -98 -73 -157
14 -270 140 -185 169 -464 70 -681 -66 -144 -175 -257 -315 -327 l-85 -42
-222 0 c-244 1 -249 2 -363 73 -102 64 -176 142 -234 247 -52 93 -74 168 -83
281 -6 86 12 133 64 165 67 42 167 11 195 -61 5 -14 11 -51 14 -83 20 -265
289 -445 536 -358 112 39 189 109 242 221 28 59 31 74 31 165 0 88 -4 107 -28
159 -69 148 -181 228 -345 247 -110 12 -161 54 -164 133 -3 77 48 131 133 142
190 23 303 96 372 242 29 61 32 75 32 167 0 93 -3 105 -34 172 -37 80 -108
156 -179 192 -158 80 -359 49 -479 -76 -49 -50 -78 -100 -104 -182 -25 -78
-69 -130 -112 -132 -110 -7 -174 55 -163 157 11 99 84 245 163 329 137 144
291 214 483 221 125 5 198 -11 315 -66 155 -73 274 -199 341 -362 20 -49 43
-93 51 -100 22 -18 72 -13 94 8 28 28 30 56 10 111 -106 289 -341 491 -643
551 -89 18 -246 12 -346 -14z m2246 -145 c98 -19 216 -65 309 -121 113 -67
251 -215 326 -350 65 -116 135 -326 153 -456 3 -26 8 -56 11 -67 11 -49 9
-329 -3 -425 -35 -268 -125 -487 -275 -670 -95 -114 -196 -194 -323 -254 -132
-63 -124 -62 -569 -61 -461 1 -426 -5 -446 85 -7 29 -9 429 -8 1145 2 1074 2
1101 22 1129 10 16 33 37 50 48 28 17 53 18 345 17 259 -1 332 -5 408 -20z
m1352 -2566 c33 -14 76 -61 89 -96 26 -69 -3 -154 -66 -197 l-37 -25 -2285 -3
c-2262 -2 -2285 -2 -2325 18 -74 36 -112 126 -87 202 14 41 65 92 105 105 45
14 4574 10 4606 -4z"/>
<path d="M3013 2777 c-43 -22 -43 -25 -43 -419 l0 -379 27 -25 c33 -30 77 -27
106 7 15 19 17 51 17 348 l0 327 143 -2 c78 -1 162 -7 186 -14 252 -68 392
-267 446 -633 7 -51 7 -241 0 -297 -29 -220 -101 -386 -218 -504 -116 -117
-213 -153 -424 -155 l-131 -2 -1 323 c-1 297 -3 325 -20 348 -26 36 -73 38
-106 6 l-25 -25 0 -375 0 -375 23 -27 23 -26 170 1 c170 1 198 3 289 23 343
73 577 452 575 933 0 66 -2 136 -5 155 -51 447 -281 740 -615 785 -82 12 -396
13 -417 2z"/>
</g>
</svg>
